<?xml version="1.0" encoding="UTF-8" standalone="no"?>
<svg
   xmlns:dc="http://purl.org/dc/elements/1.1/"
   xmlns:cc="http://creativecommons.org/ns#"
   xmlns:rdf="http://www.w3.org/1999/02/22-rdf-syntax-ns#"
   xmlns:svg="http://www.w3.org/2000/svg"
   xmlns="http://www.w3.org/2000/svg"
   xmlns:sodipodi="http://sodipodi.sourceforge.net/DTD/sodipodi-0.dtd"
   xmlns:inkscape="http://www.inkscape.org/namespaces/inkscape"
   width="1280"
   height="522.3205"
   overflow="hidden"
   version="1.1"
   id="svg187"
   sodipodi:docname="system-architecture.svg"
   inkscape:version="1.0.1 (3bc2e813f5, 2020-09-07)">
  <metadata
     id="metadata191">
    <rdf:RDF>
      <cc:Work
         rdf:about="">
        <dc:format>image/svg+xml</dc:format>
        <dc:type
           rdf:resource="http://purl.org/dc/dcmitype/StillImage" />
        <dc:title></dc:title>
      </cc:Work>
    </rdf:RDF>
  </metadata>
  <sodipodi:namedview
     pagecolor="#ffffff"
     bordercolor="#666666"
     borderopacity="1"
     objecttolerance="10"
     gridtolerance="10"
     guidetolerance="10"
     inkscape:pageopacity="0"
     inkscape:pageshadow="2"
     inkscape:window-width="1719"
     inkscape:window-height="961"
     id="namedview189"
     showgrid="false"
     fit-margin-top="0"
     fit-margin-left="0"
     fit-margin-right="0"
     fit-margin-bottom="0"
     inkscape:zoom="0.57562911"
     inkscape:cx="612.89458"
     inkscape:cy="227.23065"
     inkscape:window-x="0"
     inkscape:window-y="271"
     inkscape:window-maximized="0"
     inkscape:current-layer="svg187" />
  <defs
     id="defs41">
    <clipPath
       id="clip0">
      <rect
         x="0"
         y="0"
         width="1280"
         height="720"
         id="rect2" />
    </clipPath>
    <clipPath
       id="clip1">
      <rect
         x="426"
         y="239"
         width="96"
         height="96"
         id="rect5" />
    </clipPath>
    <clipPath
       id="clip2">
      <rect
         x="426"
         y="239"
         width="96"
         height="96"
         id="rect8" />
    </clipPath>
    <clipPath
       id="clip3">
      <rect
         x="426"
         y="239"
         width="96"
         height="96"
         id="rect11" />
    </clipPath>
    <clipPath
       id="clip4">
      <rect
         x="758"
         y="237"
         width="96"
         height="96"
         id="rect14" />
    </clipPath>
    <clipPath
       id="clip5">
      <rect
         x="758"
         y="237"
         width="96"
         height="96"
         id="rect17" />
    </clipPath>
    <clipPath
       id="clip6">
      <rect
         x="758"
         y="237"
         width="96"
         height="96"
         id="rect20" />
    </clipPath>
    <clipPath
       id="clip7">
      <rect
         x="1107"
         y="346"
         width="96"
         height="96"
         id="rect23" />
    </clipPath>
    <clipPath
       id="clip8">
      <rect
         x="1107"
         y="346"
         width="96"
         height="96"
         id="rect26" />
    </clipPath>
    <clipPath
       id="clip9">
      <rect
         x="1107"
         y="346"
         width="96"
         height="96"
         id="rect29" />
    </clipPath>
    <clipPath
       id="clip10">
      <rect
         x="1107"
         y="126"
         width="96"
         height="96"
         id="rect32" />
    </clipPath>
    <clipPath
       id="clip11">
      <rect
         x="1107"
         y="126"
         width="96"
         height="96"
         id="rect35" />
    </clipPath>
    <clipPath
       id="clip12">
      <rect
         x="1107"
         y="126"
         width="96"
         height="96"
         id="rect38" />
    </clipPath>
  </defs>
  <rect
     x="0"
     y="0"
     width="1280"
     height="522.3205"
     fill="#ffffff"
     id="rect43"
     style="stroke-width:0.851731" />
  <rect
     x="731.5"
     y="184.69675"
     width="151"
     height="114"
     stroke="#000000"
     stroke-width="1.33333"
     stroke-miterlimit="8"
     fill="none"
     id="rect45" />
  <text
     font-family="Calibri, Calibri_MSFontService, sans-serif"
     font-weight="400"
     font-size="24px"
     id="text47"
     x="762.06403"
     y="325.19675">Interface</text>
  <text
     font-family="Calibri, Calibri_MSFontService, sans-serif"
     font-weight="400"
     font-size="24px"
     id="text49"
     x="770.56403"
     y="354.19675">Service</text>
  <g
     clip-path="url(#clip1)"
     id="g65"
     transform="translate(0,-44.803253)">
    <g
       clip-path="url(#clip2)"
       id="g63">
      <g
         clip-path="url(#clip3)"
         id="g61">
        <path
           d="m 491,285 h -16 v -27 h -18 v 2 h 16 v 25 h -16 v 2 h 16 v 25 h -16 v 2 h 18 v -27 h 16 z"
           id="path51" />
        <path
           d="m 452,264 h -10 v -10 h 10 z m -12,-12 v 14 h 14 v -14 z"
           id="path53" />
        <path
           d="m 452,291 h -10 v -10 h 10 z m -12,-12 v 14 h 14 v -14 z"
           id="path55" />
        <path
           d="m 452,318 h -10 v -10 h 10 z m -12,-12 v 14 h 14 v -14 z"
           id="path57" />
        <path
           d="m 506,291 h -10 v -10 h 10 z m -12,-12 v 14 h 14 v -14 z"
           id="path59" />
      </g>
    </g>
  </g>
  <rect
     x="398.5"
     y="184.69675"
     width="151"
     height="114"
     stroke="#000000"
     stroke-width="1.33333"
     stroke-miterlimit="8"
     fill="none"
     id="rect67" />
  <text
     font-family="Calibri, Calibri_MSFontService, sans-serif"
     font-weight="400"
     font-size="24px"
     id="text69"
     x="414.819"
     y="325.19675">SSIODS Hub</text>
  <path
     d="M 549,238.19675 H 731.022"
     stroke="#000000"
     stroke-width="2"
     stroke-miterlimit="8"
     fill="none"
     fill-rule="evenodd"
     id="path71" />
  <text
     font-family="Calibri, Calibri_MSFontService, sans-serif"
     font-weight="400"
     font-size="24px"
     id="text73"
     x="558.27802"
     y="209.19675">Serial over USB</text>
  <path
     d="m 224.5,184.69675 -33,57"
     stroke="#000000"
     stroke-width="0.666667"
     stroke-miterlimit="8"
     fill="none"
     fill-rule="evenodd"
     id="path75" />
  <path
     d="m 247.5,184.69675 -33,57"
     stroke="#000000"
     stroke-width="0.666667"
     stroke-miterlimit="8"
     fill="none"
     fill-rule="evenodd"
     id="path77" />
  <path
     d="m 204.327,241.69675 -12.827,1e-4"
     stroke="#000000"
     stroke-width="0.666667"
     stroke-miterlimit="8"
     fill="none"
     fill-rule="evenodd"
     id="path79" />
  <path
     d="m 204.5,241.69675 -33,57"
     stroke="#000000"
     stroke-width="0.666667"
     stroke-miterlimit="8"
     fill="none"
     fill-rule="evenodd"
     id="path81" />
  <path
     d="m 227.327,241.69675 -12.827,1e-4"
     stroke="#000000"
     stroke-width="0.666667"
     stroke-miterlimit="8"
     fill="none"
     fill-rule="evenodd"
     id="path83" />
  <path
     d="m 227.5,241.69675 -33,57"
     stroke="#000000"
     stroke-width="0.666667"
     stroke-miterlimit="8"
     fill="none"
     fill-rule="evenodd"
     id="path85" />
  <path
     d="M 227,221.19675 H 397.919"
     stroke="#000000"
     stroke-width="2"
     stroke-miterlimit="8"
     fill="none"
     fill-rule="evenodd"
     id="path87" />
  <path
     d="M 214,263.19675 H 397.746"
     stroke="#000000"
     stroke-width="2"
     stroke-miterlimit="8"
     fill="none"
     fill-rule="evenodd"
     id="path89" />
  <text
     font-family="Calibri, Calibri_MSFontService, sans-serif"
     font-weight="400"
     font-size="24px"
     id="text91"
     x="269.13699"
     y="208.19675">CAN bus</text>
  <rect
     x="243.5"
     y="315.69675"
     width="112"
     height="90"
     stroke="#000000"
     stroke-width="1.33333"
     stroke-miterlimit="8"
     fill="none"
     id="rect93" />
  <text
     font-family="Calibri, Calibri_MSFontService, sans-serif"
     font-weight="400"
     font-size="24px"
     id="text95"
     x="245.799"
     y="431.19675">SSIODS I/O</text>
  <text
     font-family="Calibri, Calibri_MSFontService, sans-serif"
     font-weight="400"
     font-size="24px"
     id="text97"
     x="266.35901"
     y="460.19675">Device</text>
  <text
     font-family="Calibri, Calibri_MSFontService, sans-serif"
     font-weight="400"
     font-size="43px"
     id="text99"
     x="271.13199"
     y="374.19675">I/O</text>
  <path
     d="m 270,221.19675 v 94.072"
     stroke="#000000"
     stroke-width="2"
     stroke-miterlimit="8"
     fill="none"
     fill-rule="evenodd"
     id="path101" />
  <path
     d="m 328,263.19675 v 52.472"
     stroke="#000000"
     stroke-width="2"
     stroke-miterlimit="8"
     fill="none"
     fill-rule="evenodd"
     id="path103" />
  <path
     d="m 267.5,222.19675 c 0,-1.933 1.343,-3.5 3,-3.5 1.657,0 3,1.567 3,3.5 0,1.933 -1.343,3.5 -3,3.5 -1.657,0 -3,-1.567 -3,-3.5 z"
     stroke="#000000"
     stroke-width="1.33333"
     stroke-miterlimit="8"
     fill-rule="evenodd"
     id="path105" />
  <path
     d="m 324.5,263.69675 c 0,-1.657 1.567,-3 3.5,-3 1.933,0 3.5,1.343 3.5,3 0,1.657 -1.567,3 -3.5,3 -1.933,0 -3.5,-1.343 -3.5,-3 z"
     stroke="#000000"
     stroke-width="1.33333"
     stroke-miterlimit="8"
     fill-rule="evenodd"
     id="path107" />
  <rect
     x="28.500099"
     y="315.69675"
     width="111"
     height="90"
     stroke="#000000"
     stroke-width="1.33333"
     stroke-miterlimit="8"
     fill="none"
     id="rect109" />
  <text
     font-family="Calibri, Calibri_MSFontService, sans-serif"
     font-weight="400"
     font-size="24px"
     id="text111"
     x="30.3333"
     y="431.19675">SSIODS I/O</text>
  <text
     font-family="Calibri, Calibri_MSFontService, sans-serif"
     font-weight="400"
     font-size="24px"
     id="text113"
     x="50.893299"
     y="460.19675">Device</text>
  <text
     font-family="Calibri, Calibri_MSFontService, sans-serif"
     font-weight="400"
     font-size="43px"
     id="text115"
     x="55.666698"
     y="374.19675">I/O</text>
  <path
     d="m 55,221.19675 1e-4,94.072"
     stroke="#000000"
     stroke-width="2"
     stroke-miterlimit="8"
     fill="none"
     fill-rule="evenodd"
     id="path117" />
  <path
     d="m 112,263.19675 v 52.472"
     stroke="#000000"
     stroke-width="2"
     stroke-miterlimit="8"
     fill="none"
     fill-rule="evenodd"
     id="path119" />
  <path
     d="m 51.5001,222.19675 c 0,-1.933 1.567,-3.5 3.5,-3.5 1.9329,0 3.5,1.567 3.5,3.5 0,1.933 -1.5671,3.5 -3.5,3.5 -1.933,0 -3.5,-1.567 -3.5,-3.5 z"
     stroke="#000000"
     stroke-width="1.33333"
     stroke-miterlimit="8"
     fill-rule="evenodd"
     id="path121" />
  <path
     d="m 109.5,263.69675 c 0,-1.657 1.343,-3 3,-3 1.657,0 3,1.343 3,3 0,1.657 -1.343,3 -3,3 -1.657,0 -3,-1.343 -3,-3 z"
     stroke="#000000"
     stroke-width="1.33333"
     stroke-miterlimit="8"
     fill-rule="evenodd"
     id="path123" />
  <path
     d="M 18,221.19675 H 201.746"
     stroke="#000000"
     stroke-width="2"
     stroke-miterlimit="8"
     fill="none"
     fill-rule="evenodd"
     id="path125" />
  <path
     d="M 18,263.19675 H 191.119"
     stroke="#000000"
     stroke-width="2"
     stroke-miterlimit="8"
     fill="none"
     fill-rule="evenodd"
     id="path127" />
  <g
     clip-path="url(#clip4)"
     id="g137"
     transform="translate(0,-44.803253)">
    <g
       clip-path="url(#clip5)"
       id="g135">
      <g
         clip-path="url(#clip6)"
         id="g133">
        <path
           d="m 817.3,274.3 c -4.2,0 -7.5,-3.4 -7.5,-7.5 0,-4.1 3.4,-7.5 7.5,-7.5 4.2,0 7.5,3.4 7.5,7.5 0,4.1 -3.4,7.5 -7.5,7.5 z m 16.9,-12.2 c -0.4,-1.4 -0.9,-2.7 -1.6,-3.9 l 1.6,-4.7 -3.6,-3.6 -4.7,1.6 c -1.2,-0.7 -2.5,-1.2 -3.9,-1.6 l -2.2,-4.4 h -5 l -2.2,4.4 c -1.4,0.4 -2.7,0.9 -3.9,1.6 l -4.7,-1.6 -3.6,3.6 1.6,4.7 c -0.7,1.2 -1.2,2.5 -1.6,3.9 l -4.4,2.2 v 5 l 4.4,2.2 c 0.4,1.4 0.9,2.7 1.6,3.9 l -1.6,4.7 3.5,3.5 4.7,-1.6 c 1.2,0.7 2.5,1.2 3.9,1.6 l 2.2,4.4 h 5 l 2.2,-4.4 c 1.4,-0.4 2.7,-0.9 3.9,-1.6 l 4.7,1.6 3.6,-3.5 -1.6,-4.7 c 0.7,-1.2 1.3,-2.6 1.7,-3.9 l 4.4,-2.2 v -5 z"
           id="path129" />
        <path
           d="m 794.7,310.7 c -4.2,0 -7.5,-3.4 -7.5,-7.5 0,-4.2 3.4,-7.5 7.5,-7.5 4.2,0 7.5,3.4 7.5,7.5 0,4.1 -3.3,7.5 -7.5,7.5 z m 15.3,-16.1 1.6,-4.7 -3.6,-3.6 -4.7,1.6 c -1.2,-0.7 -2.6,-1.2 -3.9,-1.6 l -2.2,-4.4 h -5 l -2.2,4.4 c -1.4,0.4 -2.7,0.9 -3.9,1.6 l -4.7,-1.6 -3.5,3.5 1.5,4.7 c -0.7,1.2 -1.2,2.6 -1.6,3.9 l -4.4,2.2 v 5 l 4.4,2.2 c 0.4,1.4 0.9,2.7 1.6,3.9 l -1.5,4.7 3.5,3.5 4.7,-1.5 c 1.2,0.7 2.5,1.2 3.9,1.6 l 2.2,4.4 h 5 l 2.2,-4.4 c 1.4,-0.4 2.7,-0.9 3.9,-1.6 l 4.7,1.6 3.5,-3.6 -1.5,-4.6 c 0.7,-1.2 1.2,-2.5 1.6,-3.9 l 4.4,-2.2 v -5 l -4.4,-2.2 c -0.4,-1.4 -0.9,-2.7 -1.6,-3.9 z"
           id="path131" />
      </g>
    </g>
  </g>
  <rect
     x="1080.5"
     y="291.69675"
     width="151"
     height="114"
     stroke="#000000"
     stroke-width="1.33333"
     stroke-miterlimit="8"
     fill="none"
     id="rect139" />
  <text
     font-family="Calibri, Calibri_MSFontService, sans-serif"
     font-weight="400"
     font-size="24px"
     id="text141"
     x="1107.6899"
     y="431.19675">Simulator</text>
  <text
     font-family="Calibri, Calibri_MSFontService, sans-serif"
     font-weight="400"
     font-size="24px"
     id="text143"
     x="1110.92"
     y="460.19675">Software</text>
  <g
     clip-path="url(#clip7)"
     id="g151"
     transform="translate(0,-44.803253)">
    <g
       clip-path="url(#clip8)"
       id="g149">
      <g
         clip-path="url(#clip9)"
         id="g147">
        <path
           d="m 1189,412 v -9 l -29,-20.5 V 363 c 0,-3.9 -2,-9 -5,-9 -2.9,0 -5,5.1 -5,9 v 19.5 l -29,20.5 v 9 l 29,-14.5 v 21.8 l -10,8.7 v 6 l 15,-6 15,6 v -6 l -10,-8.7 v -21.8 z"
           id="path145" />
      </g>
    </g>
  </g>
  <g
     clip-path="url(#clip10)"
     id="g163"
     transform="translate(0,-44.803253)">
    <g
       clip-path="url(#clip11)"
       id="g161">
      <g
         clip-path="url(#clip12)"
         id="g159">
        <path
           d="m 1131.9,188.9 -2.8,-2.8 8.6,-8.6 -8.6,-8.6 2.8,-2.8 11.4,11.4 z"
           id="path153" />
        <path
           d="m 1115,143 v 62 h 80 v -62 z m 69,6 c 1.1,0 2,0.9 2,2 0,1.1 -0.9,2 -2,2 -1.1,0 -2,-0.9 -2,-2 0,-1.1 0.9,-2 2,-2 z m -7,0 c 1.1,0 2,0.9 2,2 0,1.1 -0.9,2 -2,2 -1.1,0 -2,-0.9 -2,-2 0,-1.1 0.9,-2 2,-2 z m -7,0 c 1.1,0 2,0.9 2,2 0,1.1 -0.9,2 -2,2 -1.1,0 -2,-0.9 -2,-2 0,-1.1 0.9,-2 2,-2 z m 19,50 h -68 v -40 h 68 z"
           id="path155" />
        <path
           d="m 1145,185 h 16 v 4 h -16 z"
           id="path157" />
      </g>
    </g>
  </g>
  <rect
     x="1080.5"
     y="72.696747"
     width="151"
     height="114"
     stroke="#000000"
     stroke-width="1.33333"
     stroke-miterlimit="8"
     fill="none"
     id="rect165" />
  <text
     font-family="Calibri, Calibri_MSFontService, sans-serif"
     font-weight="400"
     font-size="24px"
     id="text167"
     x="1088.23"
     y="213.19675">Configuration</text>
  <text
     font-family="Calibri, Calibri_MSFontService, sans-serif"
     font-weight="400"
     font-size="24px"
     id="text169"
     x="1125.3"
     y="242.19675">Utility</text>
  <path
     d="m 882,237.19675 h 166.77"
     stroke="#000000"
     stroke-width="2"
     stroke-miterlimit="8"
     fill="none"
     fill-rule="evenodd"
     id="path171" />
  <text
     font-family="Calibri, Calibri_MSFontService, sans-serif"
     font-weight="400"
     font-size="24px"
     id="text173"
     x="905.43103"
     y="208.19675">Named pipe</text>
  <path
     d="m 1048,345.86775 10e-5,-216.671"
     stroke="#000000"
     stroke-width="2"
     stroke-miterlimit="8"
     fill="none"
     fill-rule="evenodd"
     id="path175" />
  <path
     d="m 1048,129.19675 h 31.39"
     stroke="#000000"
     stroke-width="2"
     stroke-miterlimit="8"
     fill="none"
     fill-rule="evenodd"
     id="path177" />
  <path
     d="m 1048,345.19675 h 31.39"
     stroke="#000000"
     stroke-width="2"
     stroke-miterlimit="8"
     fill="none"
     fill-rule="evenodd"
     id="path179" />
  <rect
     x="722.5"
     y="24.696846"
     width="533"
     height="456"
     stroke="#000000"
     stroke-width="1.33333"
     stroke-miterlimit="8"
     stroke-dasharray="5.33333, 4"
     fill="none"
     id="rect181" />
  <text
     font-family="Calibri, Calibri_MSFontService, sans-serif"
     font-weight="400"
     font-size="24px"
     id="text183"
     x="983.70398"
     y="507.19675">PC</text>
</svg>
