<?xml version="1.0" encoding="UTF-8" standalone="no"?>
<svg
   xmlns:dc="http://purl.org/dc/elements/1.1/"
   xmlns:cc="http://creativecommons.org/ns#"
   xmlns:rdf="http://www.w3.org/1999/02/22-rdf-syntax-ns#"
   xmlns:svg="http://www.w3.org/2000/svg"
   xmlns="http://www.w3.org/2000/svg"
   xmlns:sodipodi="http://sodipodi.sourceforge.net/DTD/sodipodi-0.dtd"
   xmlns:inkscape="http://www.inkscape.org/namespaces/inkscape"
   width="963.07104"
   height="388.33014"
   overflow="hidden"
   version="1.1"
   id="svg123"
   sodipodi:docname="system-architecture.svg"
   inkscape:version="1.0.1 (3bc2e813f5, 2020-09-07)">
  <metadata
     id="metadata127">
    <rdf:RDF>
      <cc:Work
         rdf:about="">
        <dc:format>image/svg+xml</dc:format>
        <dc:type
           rdf:resource="http://purl.org/dc/dcmitype/StillImage" />
        <dc:title></dc:title>
      </cc:Work>
    </rdf:RDF>
  </metadata>
  <sodipodi:namedview
     pagecolor="#ffffff"
     bordercolor="#666666"
     borderopacity="1"
     objecttolerance="10"
     gridtolerance="10"
     guidetolerance="10"
     inkscape:pageopacity="0"
     inkscape:pageshadow="2"
     inkscape:window-width="1795"
     inkscape:window-height="1001"
     id="namedview125"
     showgrid="false"
     fit-margin-top="0"
     fit-margin-left="0"
     fit-margin-right="0"
     fit-margin-bottom="0"
     inkscape:zoom="3.25625"
     inkscape:cx="785.26764"
     inkscape:cy="204.32982"
     inkscape:window-x="0"
     inkscape:window-y="271"
     inkscape:window-maximized="0"
     inkscape:current-layer="svg123"
     inkscape:document-rotation="0" />
  <defs
     id="defs23">
    <clipPath
       id="clip0">
      <rect
         x="0"
         y="0"
         width="1280"
         height="720"
         id="rect2" />
    </clipPath>
    <clipPath
       id="clip1">
      <rect
         x="944"
         y="145"
         width="96"
         height="96"
         id="rect5" />
    </clipPath>
    <clipPath
       id="clip2">
      <rect
         x="944"
         y="145"
         width="96"
         height="96"
         id="rect8" />
    </clipPath>
    <clipPath
       id="clip3">
      <rect
         x="944"
         y="145"
         width="96"
         height="96"
         id="rect11" />
    </clipPath>
    <clipPath
       id="clip4">
      <rect
         x="627"
         y="145"
         width="96"
         height="96"
         id="rect14" />
    </clipPath>
    <clipPath
       id="clip5">
      <rect
         x="627"
         y="145"
         width="96"
         height="96"
         id="rect17" />
    </clipPath>
    <clipPath
       id="clip6">
      <rect
         x="627"
         y="145"
         width="96"
         height="96"
         id="rect20" />
    </clipPath>
  </defs>
  <rect
     x="0"
     y="0"
     width="963.07104"
     height="388.33014"
     fill="#ffffff"
     id="rect25"
     style="fill:#fffefe;fill-opacity:1;stroke-width:0.637028" />
  <g
     clip-path="url(#clip1)"
     id="g35"
     transform="translate(-159.6929,-73.704414)">
    <g
       clip-path="url(#clip2)"
       id="g33">
      <g
         clip-path="url(#clip3)"
         id="g31">
        <path
           d="m 1000,203 h -48 v -32 h 48 z m 2,-38 h -52 c -2.2,0 -4,1.8 -4,4 v 36 c 0,2.2 1.8,4 4,4 h 20 v 6 h -9 v 6 h 30 v -6 h -9 v -6 h 20 c 2.2,0 4,-1.8 4,-4 v -36 c 0,-2.2 -1.8,-4 -4,-4 z"
           id="path27" />
        <path
           d="m 1034,175 h -20 v -6 h 20 z m 0,10 h -20 v -6 h 20 z m -10,30 c -1.7,0 -3,-1.3 -3,-3 0,-1.7 1.3,-3 3,-3 1.7,0 3,1.3 3,3 0,1.7 -1.3,3 -3,3 z m 10,-50 h -20 c -2.2,0 -4,1.8 -4,4 v 48 c 0,2.2 1.8,4 4,4 h 20 c 2.2,0 4,-1.8 4,-4 v -48 c 0,-2.2 -1.8,-4 -4,-4 z"
           id="path29" />
      </g>
    </g>
  </g>
  <rect
     x="757.80713"
     y="61.795586"
     width="151"
     height="114"
     stroke="#000000"
     stroke-width="1.33333"
     stroke-miterlimit="8"
     fill="none"
     id="rect37" />
  <text
     font-family="Calibri, Calibri_MSFontService, sans-serif"
     font-weight="400"
     font-size="24px"
     id="text39"
     x="797.21606"
     y="202.29559">SSIODS</text>
  <text
     font-family="Calibri, Calibri_MSFontService, sans-serif"
     font-weight="400"
     font-size="24px"
     id="text41"
     x="765.77612"
     y="231.29559">Software (PC)</text>
  <g
     clip-path="url(#clip4)"
     id="g57"
     transform="translate(-159.6929,-73.704414)">
    <g
       clip-path="url(#clip5)"
       id="g55">
      <g
         clip-path="url(#clip6)"
         id="g53">
        <path
           d="m 692,191 h -16 v -27 h -18 v 2 h 16 v 25 h -16 v 2 h 16 v 25 h -16 v 2 h 18 v -27 h 16 z"
           id="path43" />
        <path
           d="m 653,170 h -10 v -10 h 10 z m -12,-12 v 14 h 14 v -14 z"
           id="path45" />
        <path
           d="m 653,197 h -10 v -10 h 10 z m -12,-12 v 14 h 14 v -14 z"
           id="path47" />
        <path
           d="m 653,224 h -10 v -10 h 10 z m -12,-12 v 14 h 14 v -14 z"
           id="path49" />
        <path
           d="m 707,197 h -10 v -10 h 10 z m -12,-12 v 14 h 14 v -14 z"
           id="path51" />
      </g>
    </g>
  </g>
  <rect
     x="439.8071"
     y="61.795586"
     width="151"
     height="114"
     stroke="#000000"
     stroke-width="1.33333"
     stroke-miterlimit="8"
     fill="none"
     id="rect59" />
  <text
     font-family="Calibri, Calibri_MSFontService, sans-serif"
     font-weight="400"
     font-size="24px"
     id="text61"
     x="456.63412"
     y="202.29559">SSIODS Hub</text>
  <path
     d="m 590.3071,115.29559 h 166.769"
     stroke="#000000"
     stroke-width="2"
     stroke-miterlimit="8"
     fill="none"
     fill-rule="evenodd"
     id="path63" />
  <text
     font-family="Calibri, Calibri_MSFontService, sans-serif"
     font-weight="400"
     font-size="24px"
     id="text65"
     x="600.09204"
     y="86.295586">Serial over USB</text>
  <path
     d="m 266.8071,61.795586 -33,57.000004"
     stroke="#000000"
     stroke-width="0.666667"
     stroke-miterlimit="8"
     fill="none"
     fill-rule="evenodd"
     id="path67" />
  <path
     d="m 289.8071,61.795586 -33,57.000004"
     stroke="#000000"
     stroke-width="0.666667"
     stroke-miterlimit="8"
     fill="none"
     fill-rule="evenodd"
     id="path69" />
  <path
     d="m 246.6341,118.79559 -12.827,10e-5"
     stroke="#000000"
     stroke-width="0.666667"
     stroke-miterlimit="8"
     fill="none"
     fill-rule="evenodd"
     id="path71" />
  <path
     d="m 245.8071,118.79559 -33,57"
     stroke="#000000"
     stroke-width="0.666667"
     stroke-miterlimit="8"
     fill="none"
     fill-rule="evenodd"
     id="path73" />
  <path
     d="m 268.6341,118.79559 -12.827,10e-5"
     stroke="#000000"
     stroke-width="0.666667"
     stroke-miterlimit="8"
     fill="none"
     fill-rule="evenodd"
     id="path75" />
  <path
     d="m 268.8071,118.79559 -33,57"
     stroke="#000000"
     stroke-width="0.666667"
     stroke-miterlimit="8"
     fill="none"
     fill-rule="evenodd"
     id="path77" />
  <path
     d="m 268.3071,98.295586 h 170.919"
     stroke="#000000"
     stroke-width="2"
     stroke-miterlimit="8"
     fill="none"
     fill-rule="evenodd"
     id="path79" />
  <path
     d="m 255.3071,140.29559 h 183.746"
     stroke="#000000"
     stroke-width="2"
     stroke-miterlimit="8"
     fill="none"
     fill-rule="evenodd"
     id="path81" />
  <text
     font-family="Calibri, Calibri_MSFontService, sans-serif"
     font-weight="400"
     font-size="24px"
     id="text83"
     x="310.95209"
     y="85.295586">CAN bus</text>
  <rect
     x="285.8071"
     y="192.79559"
     width="111"
     height="89"
     stroke="#000000"
     stroke-width="1.33333"
     stroke-miterlimit="8"
     fill="none"
     id="rect85" />
  <text
     font-family="Calibri, Calibri_MSFontService, sans-serif"
     font-weight="400"
     font-size="24px"
     id="text87"
     x="287.6131"
     y="307.29559">SSIODS I/O</text>
  <text
     font-family="Calibri, Calibri_MSFontService, sans-serif"
     font-weight="400"
     font-size="24px"
     id="text89"
     x="308.1731"
     y="336.29559">Device</text>
  <text
     font-family="Calibri, Calibri_MSFontService, sans-serif"
     font-weight="400"
     font-size="43px"
     id="text91"
     x="312.94711"
     y="250.29559">I/O</text>
  <path
     d="M 312.3071,98.295586 V 192.36759"
     stroke="#000000"
     stroke-width="2"
     stroke-miterlimit="8"
     fill="none"
     fill-rule="evenodd"
     id="path93" />
  <path
     d="m 369.3071,140.29559 v 52.472"
     stroke="#000000"
     stroke-width="2"
     stroke-miterlimit="8"
     fill="none"
     fill-rule="evenodd"
     id="path95" />
  <path
     d="m 308.8071,98.795586 c 0,-1.657 1.567,-3 3.5,-3 1.933,0 3.5,1.343 3.5,3 0,1.657004 -1.567,3.000004 -3.5,3.000004 -1.933,0 -3.5,-1.343 -3.5,-3.000004 z"
     stroke="#000000"
     stroke-width="1.33333"
     stroke-miterlimit="8"
     fill-rule="evenodd"
     id="path97" />
  <path
     d="m 366.8071,140.79559 c 0,-1.657 1.343,-3 3,-3 1.657,0 3,1.343 3,3 0,1.657 -1.343,3 -3,3 -1.657,0 -3,-1.343 -3,-3 z"
     stroke="#000000"
     stroke-width="1.33333"
     stroke-miterlimit="8"
     fill-rule="evenodd"
     id="path99" />
  <rect
     x="69.807098"
     y="192.79559"
     width="112"
     height="89"
     stroke="#000000"
     stroke-width="1.33333"
     stroke-miterlimit="8"
     fill="none"
     id="rect101" />
  <text
     font-family="Calibri, Calibri_MSFontService, sans-serif"
     font-weight="400"
     font-size="24px"
     id="text103"
     x="72.148102"
     y="307.29559">SSIODS I/O</text>
  <text
     font-family="Calibri, Calibri_MSFontService, sans-serif"
     font-weight="400"
     font-size="24px"
     id="text105"
     x="92.708099"
     y="336.29559">Device</text>
  <text
     font-family="Calibri, Calibri_MSFontService, sans-serif"
     font-weight="400"
     font-size="43px"
     id="text107"
     x="97.48111"
     y="250.29559">I/O</text>
  <path
     d="M 96.307098,98.295586 V 192.36759"
     stroke="#000000"
     stroke-width="2"
     stroke-miterlimit="8"
     fill="none"
     fill-rule="evenodd"
     id="path109" />
  <path
     d="m 154.3071,140.29559 v 52.472"
     stroke="#000000"
     stroke-width="2"
     stroke-miterlimit="8"
     fill="none"
     fill-rule="evenodd"
     id="path111" />
  <path
     d="m 93.807098,98.795586 c 0,-1.657 1.343,-3 3,-3 1.657,0 3,1.343 3,3 0,1.657004 -1.343,3.000004 -3,3.000004 -1.657,0 -3,-1.343 -3,-3.000004 z"
     stroke="#000000"
     stroke-width="1.33333"
     stroke-miterlimit="8"
     fill-rule="evenodd"
     id="path113" />
  <path
     d="m 150.8071,140.79559 c 0,-1.657 1.567,-3 3.5,-3 1.933,0 3.5,1.343 3.5,3 0,1.657 -1.567,3 -3.5,3 -1.933,0 -3.5,-1.343 -3.5,-3 z"
     stroke="#000000"
     stroke-width="1.33333"
     stroke-miterlimit="8"
     fill-rule="evenodd"
     id="path115" />
  <path
     d="M 59.307098,98.295586 H 243.0531"
     stroke="#000000"
     stroke-width="2"
     stroke-miterlimit="8"
     fill="none"
     fill-rule="evenodd"
     id="path117" />
  <path
     d="M 59.307098,140.29559 H 232.4261"
     stroke="#000000"
     stroke-width="2"
     stroke-miterlimit="8"
     fill="none"
     fill-rule="evenodd"
     id="path119" />
</svg>
